<svg width="210" height="205" viewBox="0 0 210 205" fill="none" xmlns="http://www.w3.org/2000/svg">
<path d="M159.892 111.162H154.3L152.679 106.095H144.577L142.973 111.162H137.413L145.705 88.3813H151.79L159.892 111.162ZM151.504 102.155L149.057 94.4975C148.877 93.9256 148.75 93.2425 148.676 92.4482H148.549C148.496 93.1154 148.364 93.7774 148.152 94.434L145.674 102.155H151.504Z" fill="white"/>
<path d="M176.446 92.5594H169.948V111.162H164.801V92.5594H158.335V88.3813H176.446V92.5594Z" fill="white"/>
<path d="M178.463 110.289V105.205C179.385 105.978 180.385 106.561 181.466 106.952C182.546 107.334 183.637 107.524 184.738 107.524C185.384 107.524 185.946 107.466 186.422 107.35C186.909 107.233 187.312 107.074 187.63 106.873C187.958 106.661 188.201 106.418 188.36 106.142C188.519 105.856 188.599 105.549 188.599 105.221C188.599 104.776 188.472 104.379 188.217 104.029C187.963 103.68 187.614 103.357 187.169 103.06C186.735 102.764 186.216 102.478 185.612 102.202C185.008 101.927 184.357 101.646 183.658 101.36C181.879 100.619 180.55 99.7136 179.67 98.6439C178.802 97.5742 178.368 96.2821 178.368 94.7676C178.368 93.5814 178.606 92.5647 179.083 91.7174C179.559 90.8596 180.205 90.1553 181.021 89.6045C181.847 89.0538 182.8 88.6513 183.88 88.3972C184.961 88.1324 186.104 88 187.312 88C188.498 88 189.547 88.0741 190.457 88.2224C191.379 88.3601 192.226 88.5772 192.999 88.8738V93.6238C192.618 93.359 192.2 93.126 191.744 92.9248C191.299 92.7236 190.839 92.5594 190.362 92.4323C189.885 92.2946 189.409 92.194 188.932 92.1305C188.466 92.0669 188.021 92.0351 187.598 92.0351C187.015 92.0351 186.486 92.0934 186.009 92.2099C185.533 92.3158 185.13 92.4694 184.802 92.6706C184.473 92.8718 184.219 93.1154 184.039 93.4014C183.859 93.6767 183.769 93.9892 183.769 94.3387C183.769 94.7199 183.87 95.0642 184.071 95.3713C184.272 95.6678 184.558 95.9538 184.929 96.2292C185.3 96.4939 185.75 96.7587 186.279 97.0235C186.809 97.2777 187.407 97.5424 188.074 97.8178C188.985 98.1991 189.801 98.6068 190.521 99.041C191.252 99.4647 191.877 99.9466 192.395 100.487C192.914 101.027 193.312 101.646 193.587 102.345C193.862 103.034 194 103.839 194 104.76C194 106.031 193.756 107.101 193.269 107.969C192.793 108.827 192.141 109.526 191.315 110.066C190.489 110.596 189.525 110.977 188.424 111.21C187.333 111.443 186.179 111.56 184.961 111.56C183.711 111.56 182.519 111.454 181.386 111.242C180.264 111.03 179.289 110.712 178.463 110.289Z" fill="white"/>
<path d="M111.612 89.8062L112.248 90.3145L112.756 90.8229L113.9 91.9667L114.894 93.0943L115.552 93.6189L116.06 94.1273L98.1175 111.634L97.0112 110.538L95.905 109.442L94.7987 108.345L93.73 107.249L111.612 89.8062Z" fill="white"/>
<g filter="url(#filter0_f_2_10)">
<rect x="100.971" y="100.398" width="1.32696" height="6.23999" transform="rotate(-46.15 100.971 100.398)" fill="white"/>
</g>
<g filter="url(#filter1_f_2_10)">
<rect x="103.883" y="97.0483" width="1.32696" height="6.23999" transform="rotate(-46.15 103.883 97.0483)" fill="white"/>
</g>
<path d="M112.502 111.539L113.519 110.522L114.55 109.441L115.656 108.345L116.748 107.233L98.88 89.806L97.7738 90.902L96.6675 91.9981L95.5612 93.0941L94.455 94.1902L112.502 111.539Z" fill="white"/>
<path d="M112.502 111.539C114.923 113.983 118.805 113.973 121.226 111.529L126.918 105.169C129.339 102.725 129.284 98.7317 126.863 96.2881L112.502 111.539Z" fill="white"/>
<path d="M98.2047 111.539C95.7837 113.983 91.9014 113.973 89.4804 111.529L83.7886 105.169C81.3676 102.725 81.4224 98.7317 83.8434 96.2881L98.2047 111.539Z" fill="white"/>
<path d="M122.669 100.863L126.99 96.415L120.508 89.8596C118.087 87.416 114.033 87.3626 111.612 89.8062L122.669 100.863Z" fill="white"/>
<path d="M88.0375 100.863L83.7164 96.415L90.1989 89.8596C92.62 87.416 96.4821 87.3626 98.9032 89.8062L88.0375 100.863Z" fill="white"/>
<defs>
<filter id="filter0_f_2_10" x="0.970703" y="-0.558594" width="205.419" height="205.28" filterUnits="userSpaceOnUse" color-interpolation-filters="sRGB">
<feFlood flood-opacity="0" result="BackgroundImageFix"/>
<feBlend mode="normal" in="SourceGraphic" in2="BackgroundImageFix" result="shape"/>
<feGaussianBlur stdDeviation="50" result="effect1_foregroundBlur_2_10"/>
</filter>
<filter id="filter1_f_2_10" x="3.88263" y="-3.90869" width="205.419" height="205.28" filterUnits="userSpaceOnUse" color-interpolation-filters="sRGB">
<feFlood flood-opacity="0" result="BackgroundImageFix"/>
<feBlend mode="normal" in="SourceGraphic" in2="BackgroundImageFix" result="shape"/>
<feGaussianBlur stdDeviation="50" result="effect1_foregroundBlur_2_10"/>
</filter>
</defs>
</svg>
