<svg width="52" height="48" viewBox="0 0 52 48" fill="none" xmlns="http://www.w3.org/2000/svg">
<rect width="52" height="48" rx="10" fill="#2995E2" fill-opacity="0.5"/>
<g clip-path="url(#clip0_448_3)">
<path d="M31.4429 22.5486C30.6536 22.5486 29.9115 22.2414 29.3538 21.6833C28.7957 21.1252 28.4881 20.3836 28.4881 19.5943C28.4881 18.8053 28.7953 18.0633 29.3538 17.5052C29.9115 16.9471 30.6536 16.6399 31.4429 16.6399C32.2318 16.6399 32.9738 16.9471 33.5319 17.5052C34.6835 18.6573 34.6835 20.5316 33.5319 21.6833C32.9742 22.2414 32.2318 22.5486 31.4429 22.5486ZM31.4429 17.4276C30.8639 17.4276 30.32 17.6529 29.9107 18.0621C29.5015 18.4714 29.2758 19.0157 29.2758 19.5943C29.2758 20.1728 29.5011 20.7172 29.9107 21.1264C30.32 21.5356 30.8639 21.7609 31.4429 21.7609C32.0214 21.7609 32.5658 21.5356 32.975 21.1264C33.8198 20.2815 33.8198 18.907 32.975 18.0621C32.5658 17.6529 32.0214 17.4276 31.4429 17.4276ZM29.6323 17.7837H29.6362H29.6323Z" fill="#331B3B"/>
<path d="M43.7215 9.66927C43.7219 9.49204 43.7207 9.31401 43.7164 9.1348C43.7144 9.03594 43.7105 8.93669 43.7069 8.83783C43.7026 8.71416 43.6986 8.59127 43.6923 8.46681C43.6801 8.22931 43.6648 7.99142 43.6447 7.75195C43.6289 7.56014 43.4769 7.40811 43.2851 7.39196C43.0444 7.37187 42.8054 7.35651 42.5667 7.3443C42.4489 7.338 42.3319 7.33485 42.2146 7.33052C42.1086 7.32658 42.0023 7.32264 41.8967 7.32028C41.7246 7.31673 41.5537 7.31555 41.3831 7.31555C41.3532 7.31555 41.3237 7.31555 41.2937 7.31595C37.8069 7.33406 34.6083 8.20765 31.3715 10.0174C31.3676 10.0198 31.3656 10.0241 31.3617 10.0265C28.7508 11.4803 26.1422 13.5362 23.4391 16.2397C23.0906 16.5883 22.7479 16.9412 22.412 17.2968C22.399 17.2964 22.3871 17.2909 22.3737 17.2921L16.9593 17.7037C16.8837 17.7096 16.8108 17.7368 16.7506 17.7828L8.42905 24.1142C8.29947 24.2126 8.24393 24.3804 8.28883 24.5364C8.33373 24.6928 8.47001 24.8054 8.63189 24.82L16.5879 25.538L19.7857 28.7354C18.7431 28.7291 17.5706 29.2171 16.6332 30.1541C16.2086 30.5786 15.8679 31.0544 15.6198 31.5712C15.2724 32.3073 14.4996 34.2262 13.6812 36.2581L13.2873 37.2361C13.2283 37.3826 13.2625 37.5504 13.374 37.6619C13.4492 37.7371 13.55 37.7773 13.6525 37.7773C13.7021 37.7773 13.7521 37.7682 13.7998 37.7489L14.8116 37.3413C16.8282 36.5291 18.7325 35.7623 19.4674 35.4157C19.981 35.1683 20.4572 34.828 20.8818 34.403C21.6246 33.6602 22.1158 32.748 22.2646 31.8343C22.2969 31.6366 22.3084 31.4447 22.3076 31.2577L25.425 34.3739L26.1434 42.3307C26.158 42.4926 26.2706 42.6289 26.427 42.6738C26.4628 42.684 26.4999 42.6891 26.5357 42.6891C26.6566 42.6891 26.7736 42.6332 26.8492 42.5336L33.1809 34.2124C33.2266 34.1522 33.2546 34.0797 33.2601 34.0041L33.6638 28.6956C34.0455 28.3368 34.424 27.9713 34.7977 27.5975C37.5016 24.8936 39.5576 22.2851 41.0117 19.6738C41.0137 19.6702 41.0176 19.6687 41.0196 19.6651C42.8314 16.4252 43.7049 13.2243 43.7211 9.7315C43.7211 9.71102 43.7211 9.69015 43.7215 9.66927ZM42.3178 14.4519C42.3056 14.498 42.2926 14.5437 42.2799 14.5898C41.9141 15.9081 41.3662 17.3141 40.571 18.8112L32.2258 10.4661C33.7205 9.67203 35.125 9.12496 36.4413 8.75906C36.491 8.74567 36.5406 8.73149 36.5902 8.7181C36.6875 8.69171 36.784 8.66768 36.8805 8.64366C38.8081 8.16787 40.7849 8.00796 42.8853 8.15212C43.0295 10.2502 42.87 12.2258 42.395 14.1514C42.3698 14.2511 42.3449 14.3511 42.3178 14.4519ZM17.135 18.4796L21.6408 18.1373C20.8286 19.0373 20.0622 19.9526 19.3457 20.8762C19.3446 20.8774 19.343 20.8782 19.3418 20.8794C19.3111 20.9188 19.2831 20.9582 19.2528 20.9975C19.022 21.2969 18.7951 21.5966 18.5757 21.8971C18.5316 21.9578 18.4899 22.018 18.4462 22.0783C18.239 22.365 18.0342 22.6518 17.838 22.9385C17.7561 23.0582 17.6801 23.1768 17.6001 23.2961C17.4477 23.5238 17.2937 23.7518 17.1488 23.9795C16.9826 24.2394 16.827 24.4974 16.6714 24.755L9.71383 24.1264L17.135 18.4796ZM17.9259 24.2284C18.0235 24.0776 18.1255 23.9255 18.2272 23.7739C18.3307 23.6183 18.4355 23.4623 18.5426 23.3068C18.6754 23.1142 18.8109 22.9208 18.9491 22.7274C19.0232 22.6234 19.0988 22.5198 19.174 22.4162C19.3371 22.1921 19.5017 21.968 19.6722 21.7435C19.6789 21.7349 19.686 21.7258 19.6927 21.7171L29.3199 31.3443C29.3089 31.3526 29.2979 31.3612 29.2868 31.3699C29.0667 31.5369 28.8469 31.698 28.6271 31.8583C28.5196 31.9367 28.4121 32.0147 28.3045 32.0915C28.1139 32.2277 27.9237 32.3609 27.7342 32.4916C27.5735 32.6023 27.4128 32.7102 27.2521 32.817C27.1056 32.915 26.9587 33.0139 26.8126 33.1084C26.4967 33.3124 26.1808 33.5117 25.8665 33.7012L17.3355 25.1709C17.5241 24.8574 17.7226 24.5431 17.9259 24.2284ZM21.4876 31.7078C21.3651 32.4597 20.9523 33.2191 20.3253 33.8461C19.9633 34.2077 19.56 34.4972 19.1287 34.7044C18.4174 35.0403 16.4347 35.8383 14.5174 36.6106L14.3638 36.6725L14.413 36.55C15.1905 34.6193 15.9944 32.6228 16.3307 31.9103C16.5391 31.4759 16.8286 31.0729 17.1901 30.7114C17.9723 29.9292 18.9349 29.5085 19.7593 29.5085C20.263 29.5085 20.7152 29.6653 21.0429 29.9934C21.4446 30.3943 21.6026 31.0028 21.4876 31.7078ZM32.4834 33.8284L26.8366 41.2488L26.2186 34.4042C26.4971 34.2372 26.7763 34.0679 27.0576 33.8879C27.2793 33.7465 27.5011 33.5964 27.7228 33.4483C27.8484 33.3644 27.9733 33.2845 28.0993 33.1978C28.3786 33.0068 28.6574 32.8075 28.9363 32.6062C29.0056 32.5562 29.0745 32.5086 29.1439 32.4582C29.4337 32.2467 29.7224 32.0277 30.0111 31.8055C30.06 31.7681 30.1088 31.7331 30.1577 31.6952C30.1592 31.6941 30.16 31.6917 30.1616 31.6905C31.0553 30.9973 31.9422 30.258 32.8143 29.4746L32.4834 33.8284ZM34.2408 27.0406C32.8568 28.4246 31.4121 29.7062 29.9489 30.8591L20.1776 21.0881C21.3304 19.6249 22.612 18.1802 23.9965 16.7962C26.7149 14.0778 29.2147 12.179 31.5086 10.8631L40.174 19.5284C38.8581 21.8223 36.9593 24.3221 34.2408 27.0406Z" fill="#331B3B"/>
</g>
<defs>
<clipPath id="clip0_448_3">
<rect width="36" height="36" fill="white" transform="translate(8 7)"/>
</clipPath>
</defs>
</svg>
