<svg width="777" height="891" viewBox="0 0 777 891" fill="none" xmlns="http://www.w3.org/2000/svg">
<path d="M271.651 249.079C307.043 308.716 397.346 431.993 475.424 448.006C561.834 450.18 708.927 492.268 606.024 643.226C531.519 752.525 206.127 787.169 78.4688 485.447C53.8087 408.425 39.6325 248.014 171.84 201.024C173.823 200.319 175.839 199.994 177.889 199.593L181.318 198.781C184.776 198.587 188.792 197.703 193.179 197.928C219.425 199.273 258.953 209.763 271.651 249.079Z" fill="#331B3B"/>
<mask id="mask0_225_2" style="mask-type:alpha" maskUnits="userSpaceOnUse" x="99" y="235" width="565" height="523">
<path d="M365.027 236.057C78.3546 226.899 79.502 432.959 115.91 537.135C183.889 729.167 267.763 760.321 326.231 757.684C361.719 756.083 405.988 683.321 414.549 637.736C457.121 549.817 557.387 511.032 602.199 502.629C702.332 470.151 657.17 393.48 622.072 359.204C533.909 268.633 413.974 239.368 365.027 236.057Z" fill="#C4C4C4"/>
</mask>
<g mask="url(#mask0_225_2)">
<rect x="86.4942" y="231.288" width="583.768" height="535.974" fill="#2995E2"/>
</g>
</svg>
