<svg width="52" height="48" viewBox="0 0 52 48" fill="none" xmlns="http://www.w3.org/2000/svg">
<rect width="52" height="48" rx="10" fill="#2995E2" fill-opacity="0.5"/>
<g clip-path="url(#clip0_204_2)">
<path d="M26 38.7699C17.8559 38.7699 11.2302 32.1441 11.2302 24.0001C11.2302 15.856 17.8559 9.23021 26 9.23021C34.1441 9.23021 40.7698 15.856 40.7698 24.0001C40.7698 32.1441 34.1441 38.7699 26 38.7699ZM26.3282 29.3034C28.4544 29.3375 30.5156 29.7006 32.3894 30.3531C32.8565 28.5341 33.1292 26.4909 33.1545 24.3283H26.3282V29.3034ZM26.3282 29.9599V38.097C28.8486 37.8716 31.0323 35.0637 32.2158 30.9872C30.4008 30.3498 28.3976 29.994 26.3282 29.9599ZM25.6718 29.9599C23.602 29.994 21.5992 30.3498 19.7839 30.9875C20.9674 35.0637 23.1511 37.8716 25.6718 38.097V29.9599ZM25.6718 29.3034V24.3283H18.8455C18.8708 26.4909 19.1435 28.5341 19.6106 30.3531C21.4844 29.7006 23.5456 29.3375 25.6718 29.3034ZM18.1891 24.3283H11.8948C11.969 27.5507 13.1263 30.509 15.0188 32.8521C16.1708 31.9219 17.5198 31.1546 19.0047 30.5749C18.5055 28.686 18.2153 26.568 18.1891 24.3283ZM18.1891 23.6718C18.215 21.4321 18.5055 19.3141 19.0047 17.4249C17.5201 16.8452 16.1708 16.0778 15.0191 15.1477C13.1263 17.4911 11.969 20.4494 11.8948 23.6718H18.1891ZM18.8455 23.6718H25.6718V18.697C23.5456 18.6629 21.4844 18.2996 19.6106 17.6471C19.1435 19.466 18.8708 21.5092 18.8455 23.6718ZM25.6718 18.0406V9.90306C23.1511 10.1285 20.9674 12.9365 19.7839 17.0129C21.5992 17.6503 23.6024 18.0061 25.6718 18.0406ZM26.3282 18.0406C28.3976 18.0065 30.4008 17.6507 32.2158 17.0133C31.0323 12.9365 28.8489 10.1285 26.3282 9.90306V18.0406ZM26.3282 18.697V23.6718H33.1545C33.1292 21.5092 32.8565 19.466 32.3894 17.6471C30.5156 18.2996 28.4544 18.6629 26.3282 18.697ZM33.8106 23.6718H40.1052C40.031 20.4494 38.8737 17.4911 36.9809 15.1477C35.8288 16.0778 34.4799 16.8455 32.995 17.4249C33.4942 19.3144 33.7847 21.4321 33.8106 23.6718ZM33.8106 24.3283C33.7847 26.568 33.4942 28.6857 32.995 30.5749C34.4799 31.1546 35.8288 31.9219 36.9809 32.8521C38.8737 30.5086 40.0307 27.5504 40.1049 24.3283H33.8106ZM36.5565 33.353C35.4747 32.4816 34.2091 31.7605 32.8168 31.2104C31.9145 34.2457 30.4621 36.6214 28.716 37.8486C31.8088 37.243 34.5419 35.6242 36.5565 33.353ZM23.284 37.8486C21.5379 36.6214 20.0855 34.2457 19.1832 31.2107C17.7909 31.7608 16.5253 32.4819 15.4435 33.3533C17.4578 35.6242 20.1909 37.243 23.284 37.8486ZM15.4432 14.6471C16.525 15.5186 17.7903 16.2397 19.1829 16.7897C20.0852 13.7547 21.5375 11.3791 23.2837 10.1518C20.1909 10.7571 17.4578 12.3759 15.4432 14.6471ZM28.716 10.1515C30.4621 11.3787 31.9145 13.7544 32.8168 16.7897C34.2094 16.2397 35.4747 15.5186 36.5565 14.6471C34.5419 12.3759 31.8092 10.7571 28.716 10.1515Z" fill="#331B3B"/>
</g>
<defs>
<clipPath id="clip0_204_2">
<rect width="30" height="30" fill="white" transform="matrix(1 0 0 -1 11 39)"/>
</clipPath>
</defs>
</svg>
