<svg width="386" height="105" viewBox="0 0 386 105" fill="none" xmlns="http://www.w3.org/2000/svg">
<path d="M203 94H362" stroke="#2995E2" stroke-width="10"/>
<path d="M33.8127 27.728C33.8127 32.688 32.3727 36.704 29.4927 39.776C26.6447 42.816 22.8367 44.336 18.0687 44.336C13.2687 44.336 9.44469 42.816 6.59669 39.776C3.74869 36.736 2.32469 32.72 2.32469 27.728C2.32469 22.768 3.74869 18.768 6.59669 15.728C9.47669 12.656 13.3007 11.12 18.0687 11.12C22.8687 11.12 26.6927 12.64 29.5407 15.68C32.3887 18.72 33.8127 22.736 33.8127 27.728ZM12.3567 20.528C10.9487 22.288 10.2447 24.688 10.2447 27.728C10.2447 30.768 10.9487 33.184 12.3567 34.976C13.7647 36.736 15.6687 37.616 18.0687 37.616C20.4687 37.616 22.3727 36.736 23.7807 34.976C25.1887 33.184 25.8927 30.768 25.8927 27.728C25.8927 24.688 25.1887 22.288 23.7807 20.528C22.3727 18.736 20.4687 17.84 18.0687 17.84C15.6687 17.84 13.7647 18.736 12.3567 20.528ZM55.5724 31.904C55.5724 33.856 56.0844 35.44 57.1084 36.656C58.1324 37.84 59.3804 38.432 60.8524 38.432C62.4524 38.432 63.7484 37.808 64.7404 36.56C65.7324 35.312 66.2284 33.648 66.2284 31.568C66.2284 29.552 65.6844 27.984 64.5964 26.864C63.5404 25.744 62.2764 25.184 60.8044 25.184C59.3324 25.184 58.0844 25.776 57.0604 26.96C56.0684 28.144 55.5724 29.792 55.5724 31.904ZM73.2364 52.976H66.2284V40.208C64.5964 42.928 62.1644 44.288 58.9324 44.288C55.6684 44.288 53.1084 43.104 51.2524 40.736C49.3964 38.368 48.4684 35.376 48.4684 31.76C48.4684 27.952 49.4284 24.944 51.3484 22.736C53.2684 20.496 55.8124 19.376 58.9804 19.376C62.1484 19.376 64.5644 20.72 66.2284 23.408V19.664H73.2364V52.976ZM100.612 44H93.6042V40.112C92.3242 42.832 89.8602 44.192 86.2122 44.192C83.7162 44.192 81.7642 43.504 80.3562 42.128C78.9802 40.72 78.2922 38.656 78.2922 35.936V19.664H85.3002V34.352C85.3002 37.2 86.5482 38.624 89.0442 38.624C92.0842 38.624 93.6042 36.592 93.6042 32.528V19.664H100.612V44ZM125 42.608C123.336 43.696 120.792 44.24 117.368 44.24C113.368 44.24 110.248 43.088 108.008 40.784C105.8 38.448 104.696 35.456 104.696 31.808C104.696 27.936 105.768 24.912 107.912 22.736C110.088 20.528 112.76 19.424 115.928 19.424C119.192 19.424 121.768 20.384 123.656 22.304C125.544 24.192 126.488 27.024 126.488 30.8C126.488 31.536 126.36 32.8 126.104 34.592H111.8C112.28 35.936 113.112 36.976 114.296 37.712C115.48 38.448 116.904 38.816 118.568 38.816C121.032 38.816 123.176 38.128 125 36.752V42.608ZM116.216 24.752C115.096 24.752 114.104 25.168 113.24 26C112.376 26.8 111.8 28 111.512 29.6H119.96V29.024C119.736 26.176 118.488 24.752 116.216 24.752ZM165.186 31.712C165.186 35.392 164.13 38.432 162.018 40.832C159.938 43.2 157.026 44.384 153.282 44.384C149.474 44.384 146.53 43.248 144.45 40.976C142.37 38.672 141.33 35.728 141.33 32.144C141.33 28.4 142.418 25.328 144.594 22.928C146.77 20.496 149.666 19.28 153.282 19.28C157.058 19.28 159.986 20.448 162.066 22.784C164.146 25.12 165.186 28.096 165.186 31.712ZM149.778 26.768C149.01 28.08 148.626 29.776 148.626 31.856C148.626 33.936 149.01 35.648 149.778 36.992C150.578 38.304 151.762 38.96 153.33 38.96C154.866 38.96 156.002 38.32 156.738 37.04C157.506 35.728 157.89 34.032 157.89 31.952C157.89 27.184 156.338 24.8 153.234 24.8C151.698 24.8 150.546 25.456 149.778 26.768ZM182.532 24.8H177.972V44H171.012V24.8H167.844V19.664H171.012V18.752C171.012 15.808 171.828 13.52 173.46 11.888C175.124 10.256 177.412 9.44 180.324 9.44C181.828 9.44 183.044 9.6 183.972 9.92V15.584C183.076 15.232 182.244 15.056 181.476 15.056C180.292 15.056 179.412 15.328 178.836 15.872C178.26 16.416 177.972 17.376 177.972 18.752V19.664H182.532V24.8ZM204.502 42.608C202.838 43.696 200.294 44.24 196.87 44.24C192.87 44.24 189.75 43.088 187.51 40.784C185.302 38.448 184.198 35.456 184.198 31.808C184.198 27.936 185.27 24.912 187.414 22.736C189.59 20.528 192.262 19.424 195.43 19.424C198.694 19.424 201.27 20.384 203.158 22.304C205.046 24.192 205.99 27.024 205.99 30.8C205.99 31.536 205.862 32.8 205.606 34.592H191.302C191.782 35.936 192.614 36.976 193.798 37.712C194.982 38.448 196.406 38.816 198.07 38.816C200.534 38.816 202.678 38.128 204.502 36.752V42.608ZM195.718 24.752C194.598 24.752 193.606 25.168 192.742 26C191.878 26.8 191.302 28 191.014 29.6H199.462V29.024C199.238 26.176 197.99 24.752 195.718 24.752ZM217.472 44H210.464L210.512 19.664H217.472V24.176C217.92 22.768 218.656 21.648 219.68 20.816C220.736 19.952 221.952 19.52 223.328 19.52C224.096 19.52 224.704 19.584 225.152 19.712V26.336C224.384 25.984 223.504 25.808 222.512 25.808C221.008 25.808 219.792 26.368 218.864 27.488C217.936 28.576 217.472 30.032 217.472 31.856V44ZM246.901 42.608C245.237 43.696 242.693 44.24 239.269 44.24C235.269 44.24 232.149 43.088 229.909 40.784C227.701 38.448 226.597 35.456 226.597 31.808C226.597 27.936 227.669 24.912 229.813 22.736C231.989 20.528 234.661 19.424 237.829 19.424C241.093 19.424 243.669 20.384 245.557 22.304C247.445 24.192 248.389 27.024 248.389 30.8C248.389 31.536 248.261 32.8 248.005 34.592H233.701C234.181 35.936 235.013 36.976 236.197 37.712C237.381 38.448 238.805 38.816 240.469 38.816C242.933 38.816 245.077 38.128 246.901 36.752V42.608ZM238.117 24.752C236.997 24.752 236.005 25.168 235.141 26C234.277 26.8 233.701 28 233.413 29.6H241.861V29.024C241.637 26.176 240.389 24.752 238.117 24.752ZM271.103 42.848C269.215 43.872 266.943 44.384 264.287 44.384C260.639 44.384 257.631 43.232 255.263 40.928C252.895 38.592 251.711 35.584 251.711 31.904C251.775 28.256 252.959 25.248 255.263 22.88C257.567 20.48 260.719 19.28 264.719 19.28C267.183 19.28 269.311 19.744 271.103 20.672V26.672C269.407 25.616 267.519 25.088 265.439 25.088C263.487 25.088 261.903 25.68 260.687 26.864C259.471 28.016 258.847 29.696 258.815 31.904C258.943 34.048 259.583 35.712 260.735 36.896C261.887 38.08 263.407 38.672 265.295 38.672C267.311 38.672 269.247 38.112 271.103 36.992V42.848ZM294.035 42.608C292.371 43.696 289.827 44.24 286.403 44.24C282.403 44.24 279.283 43.088 277.043 40.784C274.835 38.448 273.731 35.456 273.731 31.808C273.731 27.936 274.803 24.912 276.947 22.736C279.123 20.528 281.795 19.424 284.963 19.424C288.227 19.424 290.803 20.384 292.691 22.304C294.579 24.192 295.523 27.024 295.523 30.8C295.523 31.536 295.395 32.8 295.139 34.592H280.835C281.315 35.936 282.147 36.976 283.331 37.712C284.515 38.448 285.939 38.816 287.603 38.816C290.067 38.816 292.211 38.128 294.035 36.752V42.608ZM285.251 24.752C284.131 24.752 283.139 25.168 282.275 26C281.411 26.8 280.835 28 280.547 29.6H288.995V29.024C288.771 26.176 287.523 24.752 285.251 24.752ZM335.757 44H328.749V29.552C328.749 28.176 328.477 27.088 327.933 26.288C327.389 25.488 326.605 25.088 325.581 25.088C324.493 25.088 323.517 25.536 322.653 26.432C321.821 27.296 321.405 28.864 321.405 31.136V44H314.397V29.552C314.397 28.176 314.125 27.088 313.581 26.288C313.037 25.488 312.253 25.088 311.229 25.088C310.141 25.088 309.165 25.536 308.301 26.432C307.469 27.296 307.053 28.864 307.053 31.136V44H300.045V19.664H307.053V23.456C308.397 20.768 310.685 19.424 313.917 19.424C317.341 19.424 319.613 20.96 320.733 24.032C321.277 22.592 322.189 21.472 323.469 20.672C324.749 19.84 326.253 19.424 327.981 19.424C330.381 19.424 332.269 20.192 333.645 21.728C335.053 23.232 335.757 25.456 335.757 28.4V44ZM363.471 31.712C363.471 35.392 362.415 38.432 360.303 40.832C358.223 43.2 355.311 44.384 351.567 44.384C347.759 44.384 344.815 43.248 342.735 40.976C340.655 38.672 339.615 35.728 339.615 32.144C339.615 28.4 340.703 25.328 342.879 22.928C345.055 20.496 347.951 19.28 351.567 19.28C355.343 19.28 358.271 20.448 360.351 22.784C362.431 25.12 363.471 28.096 363.471 31.712ZM348.063 26.768C347.295 28.08 346.911 29.776 346.911 31.856C346.911 33.936 347.295 35.648 348.063 36.992C348.863 38.304 350.047 38.96 351.615 38.96C353.151 38.96 354.287 38.32 355.023 37.04C355.791 35.728 356.175 34.032 356.175 31.952C356.175 27.184 354.623 24.8 351.519 24.8C349.983 24.8 348.831 25.456 348.063 26.768ZM384.177 36.656C384.177 39.056 383.313 40.912 381.585 42.224C379.857 43.536 377.569 44.192 374.721 44.192C371.777 44.192 369.313 43.696 367.329 42.704V36.464C369.537 38 371.873 38.768 374.337 38.768C376.097 38.768 376.977 38.208 376.977 37.088C376.977 36.8 376.897 36.528 376.737 36.272C376.577 36.016 376.305 35.776 375.921 35.552C375.537 35.328 375.185 35.152 374.865 35.024C374.545 34.864 374.081 34.656 373.473 34.4C372.865 34.144 372.401 33.936 372.081 33.776C368.849 32.24 367.233 29.936 367.233 26.864C367.233 24.496 368.129 22.656 369.921 21.344C371.745 20.032 374.001 19.376 376.689 19.376C379.185 19.376 381.265 19.712 382.929 20.384V26.384C381.233 25.392 379.249 24.896 376.977 24.896C376.145 24.896 375.505 25.072 375.057 25.424C374.609 25.744 374.385 26.16 374.385 26.672C374.385 26.96 374.465 27.232 374.625 27.488C374.785 27.744 375.041 27.984 375.393 28.208C375.777 28.432 376.129 28.64 376.449 28.832C376.801 28.992 377.265 29.2 377.841 29.456C378.449 29.712 378.929 29.936 379.281 30.128C380.753 30.896 381.937 31.792 382.833 32.816C383.729 33.808 384.177 35.088 384.177 36.656ZM36.7596 82.712H31.4316V95H28.4556V62.648H36.2316C40.0076 62.648 42.9676 63.608 45.1116 65.528C47.2876 67.416 48.3756 69.912 48.3756 73.016C48.3756 75.704 47.3196 77.992 45.2076 79.88C43.1276 81.768 40.3116 82.712 36.7596 82.712ZM36.5676 65.288H31.4316V80.072H37.0956C39.6236 80.072 41.6236 79.4 43.0956 78.056C44.5996 76.712 45.3516 75.032 45.3516 73.016C45.3516 70.648 44.5836 68.776 43.0476 67.4C41.5116 65.992 39.3516 65.288 36.5676 65.288ZM60.7615 92.552C62.6815 92.552 64.2175 92.024 65.3695 90.968C66.5215 89.912 67.0975 88.568 67.0975 86.936V83.432H62.3455C60.0735 83.432 58.3775 83.88 57.2575 84.776C56.1375 85.64 55.5775 86.728 55.5775 88.04C55.5775 89.384 56.0095 90.472 56.8735 91.304C57.7695 92.136 59.0655 92.552 60.7615 92.552ZM67.0975 92.168C65.7535 94.216 63.4175 95.24 60.0895 95.24C57.8495 95.24 56.0095 94.584 54.5695 93.272C53.1615 91.928 52.4575 90.216 52.4575 88.136C52.4575 85.8 53.3535 83.992 55.1455 82.712C56.9695 81.4 59.3695 80.744 62.3455 80.744H67.0975V79.64C67.0975 77.464 66.6335 75.832 65.7055 74.744C64.7775 73.624 63.2255 73.064 61.0495 73.064C58.5215 73.064 56.2495 73.752 54.2335 75.128V71.96C56.0895 70.84 58.3775 70.28 61.0975 70.28C67.0495 70.28 70.0255 73.4 70.0255 79.64V95H67.0975V92.168ZM79.4973 95H76.5693V70.664H79.4973V74.792C80.8413 71.848 83.1133 70.376 86.3133 70.376C86.5373 70.376 86.9373 70.408 87.5133 70.472V73.448C86.8733 73.256 86.2333 73.16 85.5933 73.16C83.8653 73.16 82.4093 74.024 81.2253 75.752C80.0733 77.448 79.4973 79.336 79.4973 81.416V95ZM98.239 92.552C100.159 92.552 101.695 92.024 102.847 90.968C103.999 89.912 104.575 88.568 104.575 86.936V83.432H99.823C97.551 83.432 95.855 83.88 94.735 84.776C93.615 85.64 93.055 86.728 93.055 88.04C93.055 89.384 93.487 90.472 94.351 91.304C95.247 92.136 96.543 92.552 98.239 92.552ZM104.575 92.168C103.231 94.216 100.895 95.24 97.567 95.24C95.327 95.24 93.487 94.584 92.047 93.272C90.639 91.928 89.935 90.216 89.935 88.136C89.935 85.8 90.831 83.992 92.623 82.712C94.447 81.4 96.847 80.744 99.823 80.744H104.575V79.64C104.575 77.464 104.111 75.832 103.183 74.744C102.255 73.624 100.703 73.064 98.527 73.064C95.999 73.064 93.727 73.752 91.711 75.128V71.96C93.567 70.84 95.855 70.28 98.575 70.28C104.527 70.28 107.503 73.4 107.503 79.64V95H104.575V92.168ZM139.352 88.76C139.352 90.776 138.648 92.376 137.24 93.56C135.864 94.712 133.96 95.288 131.528 95.288C128.584 95.288 126.216 94.808 124.424 93.848V90.824C126.568 92.04 128.872 92.648 131.336 92.648C132.968 92.648 134.2 92.312 135.032 91.64C135.896 90.968 136.328 90.088 136.328 89C136.328 87.72 135.88 86.728 134.984 86.024C134.12 85.32 132.68 84.568 130.664 83.768C128.712 83 127.16 82.104 126.008 81.08C124.856 80.056 124.28 78.648 124.28 76.856C124.28 74.904 125 73.352 126.44 72.2C127.88 71.016 129.688 70.424 131.864 70.424C134.488 70.424 136.504 70.792 137.912 71.528V74.456C136.408 73.592 134.376 73.16 131.816 73.16C130.408 73.16 129.288 73.496 128.456 74.168C127.656 74.808 127.256 75.656 127.256 76.712C127.256 77.352 127.368 77.912 127.592 78.392C127.848 78.872 128.264 79.32 128.84 79.736C129.448 80.12 129.96 80.408 130.376 80.6C130.792 80.792 131.464 81.08 132.392 81.464C134.632 82.36 136.344 83.352 137.528 84.44C138.744 85.496 139.352 86.936 139.352 88.76ZM161.636 93.8C159.716 94.76 157.476 95.24 154.916 95.24C151.3 95.24 148.356 94.12 146.084 91.88C143.844 89.608 142.724 86.632 142.724 82.952C142.724 79.048 143.716 75.976 145.7 73.736C147.684 71.496 150.26 70.376 153.428 70.376C156.404 70.376 158.772 71.352 160.532 73.304C162.292 75.256 163.172 78.008 163.172 81.56C163.172 82.648 163.108 83.512 162.98 84.152H145.796C146.02 86.84 146.948 88.904 148.58 90.344C150.212 91.752 152.372 92.456 155.06 92.456C157.812 92.456 160.004 91.912 161.636 90.824V93.8ZM153.332 73.112C151.284 73.112 149.572 73.832 148.196 75.272C146.82 76.712 146.02 78.776 145.796 81.464H160.148V80.36C160.148 78.152 159.524 76.392 158.276 75.08C157.06 73.768 155.412 73.112 153.332 73.112ZM186.718 95H183.79V90.632C182.51 93.768 179.934 95.336 176.062 95.336C173.694 95.336 171.806 94.632 170.398 93.224C169.022 91.784 168.334 89.896 168.334 87.56V70.664H171.262V86.744C171.262 88.6 171.742 90.024 172.702 91.016C173.694 92.008 174.99 92.504 176.59 92.504C178.734 92.504 180.462 91.736 181.774 90.2C183.118 88.664 183.79 86.664 183.79 84.2V70.664H186.718V95ZM223.078 95H220.15V78.92C220.15 77.032 219.67 75.592 218.71 74.6C217.75 73.608 216.486 73.112 214.918 73.112C212.934 73.112 211.222 73.88 209.782 75.416C208.342 76.92 207.622 78.968 207.622 81.56V95H204.694V70.664H207.622V74.84C209.126 71.8 211.702 70.28 215.35 70.28C217.686 70.28 219.558 71 220.966 72.44C222.374 73.88 223.078 75.736 223.078 78.008V95ZM247.044 93.8C245.124 94.76 242.884 95.24 240.324 95.24C236.708 95.24 233.764 94.12 231.492 91.88C229.252 89.608 228.132 86.632 228.132 82.952C228.132 79.048 229.124 75.976 231.108 73.736C233.092 71.496 235.668 70.376 238.836 70.376C241.812 70.376 244.18 71.352 245.94 73.304C247.7 75.256 248.58 78.008 248.58 81.56C248.58 82.648 248.516 83.512 248.388 84.152H231.204C231.428 86.84 232.356 88.904 233.988 90.344C235.62 91.752 237.78 92.456 240.468 92.456C243.22 92.456 245.412 91.912 247.044 90.824V93.8ZM238.74 73.112C236.692 73.112 234.98 73.832 233.604 75.272C232.228 76.712 231.428 78.776 231.204 81.464H245.556V80.36C245.556 78.152 244.932 76.392 243.684 75.08C242.468 73.768 240.82 73.112 238.74 73.112ZM272.895 93.128C272.895 96.808 271.903 99.56 269.919 101.384C267.935 103.24 265.375 104.168 262.239 104.168C259.455 104.168 257.087 103.704 255.135 102.776V99.896C257.119 100.888 259.407 101.384 261.999 101.384C264.431 101.384 266.367 100.712 267.807 99.368C269.247 98.056 269.967 95.976 269.967 93.128V89.96C268.335 92.936 265.903 94.424 262.671 94.424C259.855 94.424 257.455 93.384 255.471 91.304C253.519 89.224 252.543 86.408 252.543 82.856C252.543 79.208 253.439 76.2 255.231 73.832C257.055 71.464 259.439 70.28 262.383 70.28C265.871 70.28 268.399 71.832 269.967 74.936V70.664H272.895V93.128ZM255.615 82.712C255.615 85.624 256.351 87.848 257.823 89.384C259.295 90.888 260.927 91.64 262.719 91.64C264.543 91.64 266.207 90.936 267.711 89.528C269.215 88.088 269.967 85.896 269.967 82.952C269.967 79.592 269.247 77.112 267.807 75.512C266.367 73.88 264.751 73.064 262.959 73.064C260.687 73.064 258.895 73.96 257.583 75.752C256.271 77.544 255.615 79.864 255.615 82.712ZM300.546 82.952C300.546 86.568 299.522 89.56 297.474 91.928C295.458 94.264 292.674 95.432 289.122 95.432C285.698 95.432 282.978 94.248 280.962 91.88C278.946 89.512 277.938 86.536 277.938 82.952C277.938 79.4 278.978 76.408 281.058 73.976C283.138 71.544 285.826 70.328 289.122 70.328C292.738 70.328 295.538 71.528 297.522 73.928C299.538 76.296 300.546 79.304 300.546 82.952ZM281.01 82.952C281.01 85.608 281.746 87.896 283.218 89.816C284.722 91.704 286.69 92.648 289.122 92.648C291.778 92.648 293.826 91.72 295.266 89.864C296.738 87.976 297.474 85.672 297.474 82.952C297.474 80.136 296.786 77.8 295.41 75.944C294.034 74.056 291.938 73.112 289.122 73.112C286.594 73.112 284.61 74.072 283.17 75.992C281.73 77.912 281.01 80.232 281.01 82.952ZM322.22 94.184C320.844 95.112 319.068 95.576 316.892 95.576C312.956 95.576 309.884 94.344 307.676 91.88C305.468 89.384 304.364 86.392 304.364 82.904C304.364 79.512 305.484 76.552 307.724 74.024C309.996 71.496 313.052 70.232 316.892 70.232C318.876 70.232 320.652 70.664 322.22 71.528V74.504C320.78 73.544 319.1 73.064 317.18 73.064C314.204 73.064 311.836 74.04 310.076 75.992C308.316 77.912 307.436 80.232 307.436 82.952C307.436 85.704 308.284 88.024 309.98 89.912C311.676 91.8 314.092 92.744 317.228 92.744C319.18 92.744 320.844 92.232 322.22 91.208V94.184ZM331.132 95H328.204V70.664H331.132V95ZM331.084 61.448C331.5 61.832 331.708 62.312 331.708 62.888C331.708 63.464 331.5 63.944 331.084 64.328C330.7 64.712 330.22 64.904 329.644 64.904C329.068 64.904 328.588 64.712 328.204 64.328C327.82 63.944 327.628 63.464 327.628 62.888C327.628 62.312 327.82 61.832 328.204 61.448C328.588 61.032 329.068 60.824 329.644 60.824C330.22 60.824 330.7 61.032 331.084 61.448ZM359.246 82.952C359.246 86.568 358.222 89.56 356.174 91.928C354.158 94.264 351.374 95.432 347.822 95.432C344.398 95.432 341.678 94.248 339.662 91.88C337.646 89.512 336.638 86.536 336.638 82.952C336.638 79.4 337.678 76.408 339.758 73.976C341.838 71.544 344.526 70.328 347.822 70.328C351.438 70.328 354.238 71.528 356.222 73.928C358.238 76.296 359.246 79.304 359.246 82.952ZM339.71 82.952C339.71 85.608 340.446 87.896 341.918 89.816C343.422 91.704 345.39 92.648 347.822 92.648C350.478 92.648 352.526 91.72 353.966 89.864C355.438 87.976 356.174 85.672 356.174 82.952C356.174 80.136 355.486 77.8 354.11 75.944C352.734 74.056 350.638 73.112 347.822 73.112C345.294 73.112 343.31 74.072 341.87 75.992C340.43 77.912 339.71 80.232 339.71 82.952Z" fill="#331B3B"/>
</svg>
