<svg width="52" height="48" viewBox="0 0 52 48" fill="none" xmlns="http://www.w3.org/2000/svg">
<rect width="52" height="48" rx="10" fill="#2995E2" fill-opacity="0.5"/>
<path d="M24.3561 27.39C22.7279 27.39 21.1 26.7701 19.8605 25.5306C17.382 23.052 17.382 19.0184 19.8605 16.5399C22.3395 14.0613 26.373 14.0609 28.8516 16.5399C31.3306 19.0184 31.3306 23.052 28.8516 25.5306C27.6121 26.7701 25.9839 27.39 24.3561 27.39ZM24.3557 15.4682C22.9295 15.4682 21.5029 16.0109 20.4171 17.0968C18.2453 19.2685 18.2453 22.8019 20.4171 24.9736C22.5888 27.1454 26.1226 27.1454 28.2943 24.9736C30.4661 22.8019 30.4661 19.2685 28.2943 17.0968C27.2084 16.0113 25.7823 15.4682 24.3557 15.4682Z" fill="#331B3B"/>
<path d="M37.2719 31.8646L32.0371 26.6294C31.559 26.1513 30.8335 26.0764 30.2706 26.3935L29.1154 25.2383C31.3195 22.7444 31.236 18.9247 28.8512 16.5402C26.373 14.0613 22.339 14.0617 19.8601 16.5402C17.3815 19.0188 17.3815 23.0524 19.8601 25.5309C21.0995 26.77 22.7274 27.3904 24.3556 27.3904C25.8602 27.3904 27.3608 26.8539 28.5585 25.7956L29.7137 26.9508C29.3967 27.5136 29.4711 28.2387 29.9496 28.7173L35.1849 33.9521C35.4625 34.2302 35.8332 34.3834 36.2282 34.3834C36.6232 34.3834 36.9939 34.2302 37.2715 33.9521C37.5496 33.674 37.7028 33.3034 37.7028 32.9084C37.7028 32.5133 37.55 32.1423 37.2719 31.8646ZM20.4174 24.974C18.2456 22.8023 18.2456 19.2689 20.4174 17.0972C21.5033 16.0113 22.9294 15.4685 24.356 15.4685C25.7826 15.4685 27.2087 16.0113 28.2946 17.0972C30.4664 19.2689 30.4664 22.8023 28.2946 24.974C26.1229 27.1458 22.5887 27.1454 20.4174 24.974ZM36.715 33.3952C36.4566 33.6536 36.0005 33.6536 35.7418 33.3952L30.5066 28.16C30.2383 27.8913 30.2383 27.455 30.5066 27.1863C30.6409 27.0524 30.8169 26.9851 30.9934 26.9851C31.1694 26.9851 31.3459 27.052 31.4798 27.1863L36.7146 32.4216C36.8438 32.5507 36.9151 32.7236 36.9151 32.908C36.9151 33.0923 36.8442 33.2656 36.715 33.3952Z" fill="#331B3B"/>
<path d="M20.2343 23.2986C20.1149 23.2986 19.9972 23.2446 19.92 23.1426C19.7888 22.9693 19.8227 22.722 19.9964 22.5908L25.6802 18.289C25.7692 18.2221 25.8819 18.1953 25.9913 18.2162C26.1004 18.237 26.1962 18.3028 26.2541 18.3977L28.0142 21.2828L28.6066 20.8574C28.7823 20.7298 29.0288 20.7708 29.1564 20.9476C29.2832 21.1244 29.2431 21.3702 29.0662 21.4974L28.1292 22.1705C28.0402 22.2344 27.928 22.2592 27.8216 22.2367C27.7141 22.2151 27.6204 22.1493 27.5636 22.0559L25.809 19.1799L20.4721 23.2186C20.4005 23.2726 20.317 23.2986 20.2343 23.2986Z" fill="#331B3B"/>
<path d="M34.5795 27.8631C34.7973 27.8631 34.9734 27.687 34.9734 27.4692V8.24044C34.9734 7.15732 34.0923 6.27625 33.0092 6.27625H16.2606C15.1775 6.27625 14.2968 7.15732 14.2968 8.24044V39.7601C14.2968 40.8428 15.1779 41.7239 16.2606 41.7239H33.0088C34.0919 41.7239 34.973 40.8428 34.973 39.7601V34.975C34.973 34.7572 34.7969 34.5812 34.5791 34.5812C34.3613 34.5812 34.1853 34.7572 34.1853 34.975V35.9932H15.0845V24.3108L16.1046 25.9804C16.1625 26.0753 16.2582 26.1411 16.3673 26.162C16.3917 26.1667 16.4162 26.1691 16.4406 26.1691C16.5257 26.1691 16.6092 26.1415 16.6785 26.0895L17.927 25.145C18.1003 25.0135 18.1346 24.7665 18.0034 24.5932C17.8719 24.4199 17.6249 24.3856 17.4516 24.5168L16.5501 25.199L15.0845 22.8004V10.7946H34.1857V16.8499L31.3479 18.8889C31.171 19.0157 31.1305 19.2619 31.2577 19.4387C31.3345 19.5459 31.4554 19.603 31.5779 19.603C31.6575 19.603 31.7378 19.5789 31.8071 19.5289L34.1857 17.82V27.4696C34.1857 27.6866 34.3617 27.8631 34.5795 27.8631ZM34.1857 36.7809V39.7597C34.1857 40.408 33.6579 40.9357 33.0092 40.9357H16.2606C15.6123 40.9357 15.0845 40.408 15.0845 39.7597V36.7809H34.1857ZM15.0845 10.0069V8.24044C15.0845 7.59175 15.6123 7.06397 16.2606 7.06397H33.0088C33.6575 7.06397 34.1853 7.59175 34.1853 8.24044V10.0069H15.0845Z" fill="#331B3B"/>
<path d="M24.6349 40.278C23.8637 40.278 23.2363 39.6505 23.2363 38.8793C23.2363 38.1082 23.8637 37.4803 24.6349 37.4803C25.4061 37.4803 26.0335 38.1082 26.0335 38.8793C26.0335 39.6505 25.4061 40.278 24.6349 40.278ZM24.6349 38.2685C24.2982 38.2685 24.024 38.5426 24.024 38.8797C24.024 39.2169 24.2982 39.4906 24.6349 39.4906C24.9717 39.4906 25.2458 39.2169 25.2458 38.8797C25.2458 38.5426 24.9721 38.2685 24.6349 38.2685Z" fill="#331B3B"/>
<path d="M27.0319 8.90247H22.2378C22.0204 8.90247 21.844 8.72602 21.844 8.50861C21.844 8.2912 22.0204 8.11475 22.2378 8.11475H27.0319C27.2497 8.11475 27.4258 8.2912 27.4258 8.50861C27.4258 8.72602 27.2497 8.90247 27.0319 8.90247Z" fill="#331B3B"/>
</svg>
