<svg width="217" height="52" viewBox="0 0 217 52" fill="none" xmlns="http://www.w3.org/2000/svg">
<path d="M6 44.5044H211" stroke="#2995E2" stroke-width="12" stroke-linecap="square"/>
<path d="M25.232 35.0964C25.232 38.0084 24.16 40.3764 22.016 42.2004C19.872 43.9924 17.024 44.8884 13.472 44.8884C9.664 44.8884 6.56 44.2164 4.16 42.8724V35.4324C7.072 37.5444 10.176 38.6004 13.472 38.6004C14.592 38.6004 15.52 38.3124 16.256 37.7364C16.992 37.1284 17.36 36.3444 17.36 35.3844C17.36 35.0644 17.312 34.7604 17.216 34.4724C17.12 34.1844 16.944 33.9124 16.688 33.6564C16.432 33.4004 16.176 33.1924 15.92 33.0324C15.696 32.8404 15.344 32.6324 14.864 32.4084C14.416 32.1524 14.032 31.9444 13.712 31.7844C13.392 31.6244 12.912 31.4004 12.272 31.1124C11.664 30.8244 11.168 30.6004 10.784 30.4404C8.704 29.4804 7.024 28.2964 5.744 26.8884C4.496 25.4804 3.872 23.6084 3.872 21.2724C3.872 18.4884 4.896 16.2484 6.944 14.5524C8.992 12.8244 11.824 11.9604 15.44 11.9604C18.672 11.9604 21.456 12.5044 23.792 13.5924V20.5044C21.2 19.0004 18.512 18.2484 15.728 18.2484C14.48 18.2484 13.52 18.5044 12.848 19.0164C12.208 19.5284 11.888 20.1844 11.888 20.9844C11.888 21.7844 12.288 22.5044 13.088 23.1444C13.888 23.7524 15.088 24.4084 16.688 25.1124C17.68 25.5604 18.496 25.9604 19.136 26.3124C19.808 26.6324 20.56 27.0964 21.392 27.7044C22.256 28.2804 22.928 28.9044 23.408 29.5764C23.92 30.2164 24.352 31.0164 24.704 31.9764C25.056 32.9364 25.232 33.9764 25.232 35.0964ZM51.7123 32.2164C51.7123 35.8964 50.6563 38.9364 48.5443 41.3364C46.4643 43.7044 43.5523 44.8884 39.8083 44.8884C36.0003 44.8884 33.0563 43.7524 30.9763 41.4804C28.8963 39.1764 27.8563 36.2324 27.8563 32.6484C27.8563 28.9044 28.9443 25.8324 31.1203 23.4324C33.2963 21.0004 36.1923 19.7844 39.8083 19.7844C43.5843 19.7844 46.5123 20.9524 48.5923 23.2884C50.6723 25.6244 51.7123 28.6004 51.7123 32.2164ZM36.3043 27.2724C35.5363 28.5844 35.1523 30.2804 35.1523 32.3604C35.1523 34.4404 35.5363 36.1524 36.3043 37.4964C37.1043 38.8084 38.2883 39.4644 39.8563 39.4644C41.3923 39.4644 42.5283 38.8244 43.2643 37.5444C44.0323 36.2324 44.4163 34.5364 44.4163 32.4564C44.4163 27.6884 42.8643 25.3044 39.7603 25.3044C38.2243 25.3044 37.0723 25.9604 36.3043 27.2724ZM62.8186 44.5044H55.8106V10.5684H62.8186V23.9124C64.4826 21.2244 66.8986 19.8804 70.0666 19.8804C73.1066 19.8804 75.6186 20.9844 77.6026 23.1924C79.5866 25.4004 80.5786 28.4244 80.5786 32.2644C80.5786 35.6884 79.6186 38.6324 77.6986 41.0964C75.8106 43.5604 73.2826 44.7924 70.1146 44.7924C66.8826 44.7924 64.4506 43.4324 62.8186 40.7124V44.5044ZM62.8186 32.0724C62.8186 34.1524 63.3146 35.8164 64.3066 37.0644C65.2986 38.3124 66.5946 38.9364 68.1946 38.9364C69.6666 38.9364 70.9146 38.3444 71.9386 37.1604C72.9626 35.9444 73.4746 34.3604 73.4746 32.4084C73.4746 30.2964 72.9626 28.6484 71.9386 27.4644C70.9466 26.2804 69.7146 25.6884 68.2426 25.6884C66.7706 25.6884 65.4906 26.2484 64.4026 27.3684C63.3466 28.4884 62.8186 30.0564 62.8186 32.0724ZM91.6344 44.5044H84.6264L84.6744 20.1684H91.6344V24.6804C92.0824 23.2724 92.8184 22.1524 93.8424 21.3204C94.8984 20.4564 96.1144 20.0244 97.4904 20.0244C98.2584 20.0244 98.8664 20.0884 99.3144 20.2164V26.8404C98.5464 26.4884 97.6664 26.3124 96.6744 26.3124C95.1704 26.3124 93.9544 26.8724 93.0264 27.9924C92.0984 29.0804 91.6344 30.5364 91.6344 32.3604V44.5044ZM121.064 43.1124C119.4 44.2004 116.856 44.7444 113.432 44.7444C109.432 44.7444 106.312 43.5924 104.072 41.2884C101.864 38.9524 100.76 35.9604 100.76 32.3124C100.76 28.4404 101.832 25.4164 103.976 23.2404C106.152 21.0324 108.824 19.9284 111.992 19.9284C115.256 19.9284 117.832 20.8884 119.72 22.8084C121.608 24.6964 122.552 27.5284 122.552 31.3044C122.552 32.0404 122.424 33.3044 122.168 35.0964H107.864C108.344 36.4404 109.176 37.4804 110.36 38.2164C111.544 38.9524 112.968 39.3204 114.632 39.3204C117.096 39.3204 119.24 38.6324 121.064 37.2564V43.1124ZM112.28 25.2564C111.16 25.2564 110.168 25.6724 109.304 26.5044C108.44 27.3044 107.864 28.5044 107.576 30.1044H116.024V29.5284C115.8 26.6804 114.552 25.2564 112.28 25.2564ZM146.226 44.5044H138.834V12.1524H146.946L154.482 25.5444C155.538 27.4324 156.45 29.2084 157.218 30.8724C158.018 32.5044 158.53 33.6564 158.754 34.3284L159.138 35.3844C158.818 33.0164 158.658 29.7364 158.658 25.5444V12.1524H166.05V44.5044H157.938L150.21 31.1124C149.186 29.3844 148.274 27.6884 147.474 26.0244C146.706 24.3284 146.178 23.0804 145.89 22.2804L145.506 21.0804C145.986 23.9604 146.226 27.3044 146.226 31.1124V44.5044ZM194.238 32.2164C194.238 35.8964 193.182 38.9364 191.071 41.3364C188.991 43.7044 186.079 44.8884 182.334 44.8884C178.526 44.8884 175.582 43.7524 173.502 41.4804C171.422 39.1764 170.382 36.2324 170.382 32.6484C170.382 28.9044 171.47 25.8324 173.646 23.4324C175.822 21.0004 178.718 19.7844 182.334 19.7844C186.11 19.7844 189.038 20.9524 191.118 23.2884C193.198 25.6244 194.238 28.6004 194.238 32.2164ZM178.83 27.2724C178.062 28.5844 177.678 30.2804 177.678 32.3604C177.678 34.4404 178.062 36.1524 178.83 37.4964C179.631 38.8084 180.815 39.4644 182.383 39.4644C183.918 39.4644 185.054 38.8244 185.79 37.5444C186.559 36.2324 186.943 34.5364 186.943 32.4564C186.943 27.6884 185.391 25.3044 182.287 25.3044C180.751 25.3044 179.599 25.9604 178.83 27.2724ZM185.79 17.9604H179.983L184.11 9.46439H191.118L185.79 17.9604ZM214.945 37.1604C214.945 39.5604 214.081 41.4164 212.353 42.7284C210.625 44.0404 208.337 44.6964 205.489 44.6964C202.545 44.6964 200.081 44.2004 198.097 43.2084V36.9684C200.305 38.5044 202.641 39.2724 205.105 39.2724C206.865 39.2724 207.745 38.7124 207.745 37.5924C207.745 37.3044 207.665 37.0324 207.505 36.7764C207.345 36.5204 207.073 36.2804 206.689 36.0564C206.305 35.8324 205.953 35.6564 205.633 35.5284C205.313 35.3684 204.849 35.1604 204.241 34.9044C203.633 34.6484 203.169 34.4404 202.849 34.2804C199.617 32.7444 198.001 30.4404 198.001 27.3684C198.001 25.0004 198.897 23.1604 200.689 21.8484C202.513 20.5364 204.769 19.8804 207.457 19.8804C209.953 19.8804 212.033 20.2164 213.697 20.8884V26.8884C212.001 25.8964 210.017 25.4004 207.745 25.4004C206.913 25.4004 206.273 25.5764 205.825 25.9284C205.377 26.2484 205.153 26.6644 205.153 27.1764C205.153 27.4644 205.233 27.7364 205.393 27.9924C205.553 28.2484 205.809 28.4884 206.161 28.7124C206.545 28.9364 206.897 29.1444 207.217 29.3364C207.569 29.4964 208.033 29.7044 208.609 29.9604C209.217 30.2164 209.697 30.4404 210.049 30.6324C211.521 31.4004 212.705 32.2964 213.601 33.3204C214.497 34.3124 214.945 35.5924 214.945 37.1604Z" fill="#331B3B"/>
</svg>
